<svg xmlns="http://www.w3.org/2000/svg" width="1200" height="630" viewBox="0 0 1200 630">
  <defs>
    <pattern id="grid" width="30" height="30" patternUnits="userSpaceOnUse">
      <path d="M30 0H0V30" fill="none" stroke="#d7e4ea" stroke-width="1" opacity=".7"/>
    </pattern>
    <filter id="shadow" x="-20%" y="-20%" width="140%" height="140%">
      <feDropShadow dx="0" dy="10" stdDeviation="16" flood-color="#173447" flood-opacity=".12"/>
    </filter>
  </defs>
  <rect width="1200" height="630" fill="#f4f7f9"/>
  <rect width="1200" height="630" fill="url(#grid)"/>
  <rect width="88" height="630" fill="#173447"/>
  <path d="M32 48h24M32 48v24M56 582H32v-24" fill="none" stroke="#70c1d3" stroke-width="4"/>
  <circle cx="44" cy="315" r="6" fill="#70c1d3"/>

  <g filter="url(#shadow)">
    <rect x="132" y="72" width="936" height="486" rx="3" fill="#fff" stroke="#b5cbd5" stroke-width="2"/>
  </g>
  <path d="M132 158h936M720 158v400" fill="none" stroke="#d7e4ea" stroke-width="2"/>

  <g font-family="SFMono-Regular, Menlo, Consolas, monospace">
    <text x="178" y="117" fill="#087e9b" font-size="22" font-weight="700" letter-spacing="4">CCA / FIELD NOTES</text>
    <text x="1020" y="117" fill="#4c6574" font-size="16" text-anchor="end" letter-spacing="2">JULY 2026</text>
  </g>

  <g font-family="Arial Narrow, Avenir Next Condensed, Arial, sans-serif" fill="#173447" font-weight="700">
    <text x="178" y="240" font-size="55" letter-spacing="-1">CLAUDE CERTIFIED</text>
    <text x="178" y="316" font-size="79" letter-spacing="-2">ARCHITECT</text>
  </g>
  <rect x="178" y="352" width="284" height="45" rx="2" fill="#173447"/>
  <text x="199" y="382" fill="#fff" font-family="SFMono-Regular, Menlo, Consolas, monospace" font-size="18" font-weight="700" letter-spacing="2">FOUNDATIONS · CCAR-F</text>

  <text x="178" y="446" fill="#173447" font-family="SFMono-Regular, Menlo, Consolas, monospace" font-size="18" font-weight="700" letter-spacing="1">UNOFFICIAL STUDY GUIDE · RETRIEVAL PRACTICE</text>
  <text x="178" y="488" fill="#4c6574" font-family="SFMono-Regular, Menlo, Consolas, monospace" font-size="16" letter-spacing="1.8">5 DOMAINS · 30 OBJECTIVES · 16 CARDS</text>
  <text x="178" y="526" fill="#a85b18" font-family="SFMono-Regular, Menlo, Consolas, monospace" font-size="13" font-weight="700" letter-spacing="1.5">UNOFFICIAL · NOT AFFILIATED WITH ANTHROPIC</text>

  <g transform="translate(757 196)">
    <text x="0" y="0" fill="#087e9b" font-family="SFMono-Regular, Menlo, Consolas, monospace" font-size="15" font-weight="700" letter-spacing="2">EXAM BLUEPRINT / COVERAGE</text>
    <path d="M33 104H115L158 175H228L254 88M115 104H254" fill="none" stroke="#87b9c6" stroke-width="3"/>
    <g font-family="SFMono-Regular, Menlo, Consolas, monospace" text-anchor="middle">
      <g transform="translate(33 104)"><circle r="32" fill="#173447"/><circle r="25" fill="none" stroke="#70c1d3" stroke-width="2"/><text y="-3" fill="#fff" font-size="14">D1</text><text y="16" fill="#70c1d3" font-size="15" font-weight="700">27%</text></g>
      <g transform="translate(115 104)"><circle r="30" fill="#fff" stroke="#173447" stroke-width="3"/><text y="-3" fill="#173447" font-size="14">D2</text><text y="16" fill="#087e9b" font-size="15" font-weight="700">18%</text></g>
      <g transform="translate(158 175)"><circle r="30" fill="#173447"/><circle r="23" fill="none" stroke="#70c1d3" stroke-width="2"/><text y="-3" fill="#fff" font-size="14">D3</text><text y="16" fill="#70c1d3" font-size="15" font-weight="700">20%</text></g>
      <g transform="translate(228 175)"><circle r="30" fill="#fff" stroke="#173447" stroke-width="3"/><text y="-3" fill="#173447" font-size="14">D4</text><text y="16" fill="#087e9b" font-size="15" font-weight="700">20%</text></g>
      <g transform="translate(254 88)"><circle r="29" fill="#173447"/><circle r="23" fill="none" stroke="#70c1d3" stroke-width="2"/><text y="-3" fill="#fff" font-size="14">D5</text><text y="16" fill="#70c1d3" font-size="15" font-weight="700">15%</text></g>
    </g>
    <rect x="0" y="252" width="283" height="2" fill="#d7e4ea"/>
    <text x="0" y="292" fill="#4c6574" font-family="SFMono-Regular, Menlo, Consolas, monospace" font-size="13" letter-spacing="1.2">THINK → REVEAL → RATE → REVISIT</text>
  </g>
</svg>
